<svg aria-hidden="true" style="position: absolute; width: 0; height: 0; overflow: hidden;" version="1.1" xmlns="http://www.w3.org/2000/svg" xmlns:xlink="http://www.w3.org/1999/xlink">
<defs>
<symbol id="icon-account_box" viewBox="0 0 24 24">
<title>account_box</title>
<path d="M6 17.016v0.984h12v-0.984c0-2.016-3.984-3.094-6-3.094s-6 1.078-6 3.094zM15 9c0-1.641-1.359-3-3-3s-3 1.359-3 3 1.359 3 3 3 3-1.359 3-3zM3 5.016c0-1.078 0.891-2.016 2.016-2.016h13.969c1.078 0 2.016 0.938 2.016 2.016v13.969c0 1.078-0.938 2.016-2.016 2.016h-13.969c-1.125 0-2.016-0.938-2.016-2.016v-13.969z"></path>
</symbol>
<symbol id="icon-account_circle" viewBox="0 0 24 24">
<title>account_circle</title>
<path d="M12 19.219c2.484 0 4.688-1.313 6-3.234-0.047-1.969-4.031-3.094-6-3.094-2.016 0-5.953 1.125-6 3.094 1.313 1.922 3.516 3.234 6 3.234zM12 5.016c-1.641 0-3 1.359-3 3s1.359 3 3 3 3-1.359 3-3-1.359-3-3-3zM12 2.016c5.531 0 9.984 4.453 9.984 9.984s-4.453 9.984-9.984 9.984-9.984-4.453-9.984-9.984 4.453-9.984 9.984-9.984z"></path>
</symbol>
</defs>
</svg>
